<svg width="51" height="51" viewBox="0 0 51 51" fill="none" xmlns="http://www.w3.org/2000/svg">
<g id="Frame 20">
<g id="Group">
<path id="Vector" d="M12.6366 19.945C12.6366 18.7788 13.5793 17.8361 14.7455 17.8361C15.9077 17.8361 16.8545 18.7788 16.8545 19.945C16.8545 21.1113 15.9117 22.054 14.7455 22.054C13.5793 22.054 12.6366 21.1072 12.6366 19.945Z" fill="#FDB11C"/>
<path id="Vector_2" d="M34.1488 19.945C34.1488 18.7788 35.0915 17.8361 36.2577 17.8361C37.424 17.8361 38.3667 18.7788 38.3667 19.945C38.3667 21.1113 37.424 22.054 36.2577 22.054C35.0915 22.054 34.1488 21.1072 34.1488 19.945Z" fill="#FDB11C"/>
<path id="Vector_3" d="M42.375 42.375C51.6948 33.0552 51.6948 17.9448 42.375 8.62499C33.0552 -0.69481 17.9448 -0.694796 8.625 8.62501C-0.69481 17.9448 -0.694806 33.0552 8.625 42.375C17.9448 51.6948 33.0552 51.6948 42.375 42.375Z" stroke="#FDB11C" stroke-width="2" stroke-miterlimit="10" stroke-linecap="round" stroke-linejoin="round"/>
<path id="Vector_4" d="M38.3302 29.4943C36.6276 34.9638 31.5279 38.9339 25.4976 38.9339C19.4673 38.9339 14.3676 34.9638 12.665 29.4943H38.3302Z" stroke="#FDB11C" stroke-width="2" stroke-miterlimit="10" stroke-linecap="round" stroke-linejoin="round"/>
</g>
</g>
</svg>
