<svg width="51" height="51" viewBox="0 0 51 51" fill="none" xmlns="http://www.w3.org/2000/svg">
<g id="Frame 22">
<g id="Group">
<path id="Vector" d="M12.421 19.9202C12.421 18.7348 13.3737 17.7765 14.5523 17.7765C15.7267 17.7765 16.6836 18.7348 16.6836 19.9202C16.6836 21.1057 15.7308 22.064 14.5523 22.064C13.3778 22.0599 12.421 21.1016 12.421 19.9202Z" fill="#D680F4"/>
<path id="Vector_2" d="M34.1609 19.9202C34.1609 18.7348 35.1136 17.7765 36.2922 17.7765C37.4667 17.7765 38.4235 18.7348 38.4235 19.9202C38.4235 21.1057 37.4708 22.064 36.2922 22.064C35.1136 22.0599 34.1609 21.1016 34.1609 19.9202Z" fill="#D680F4"/>
<path id="Vector_3" d="M25.4222 49.8252C38.742 49.8252 49.5398 38.9643 49.5398 25.5666C49.5398 12.169 38.742 1.30801 25.4222 1.30801C12.1025 1.30801 1.30466 12.169 1.30466 25.5666C1.30466 38.9643 12.1025 49.8252 25.4222 49.8252Z" stroke="#D680F4" stroke-width="2" stroke-miterlimit="10" stroke-linecap="round" stroke-linejoin="round"/>
<path id="Vector_4" d="M25.4223 41.3164C28.5226 41.3164 31.0359 37.6159 31.0359 33.0512C31.0359 28.4865 28.5226 24.786 25.4223 24.786C22.3219 24.786 19.8087 28.4865 19.8087 33.0512C19.8087 37.6159 22.3219 41.3164 25.4223 41.3164Z" stroke="#D680F4" stroke-width="2" stroke-miterlimit="10" stroke-linecap="round" stroke-linejoin="round"/>
</g>
</g>
</svg>
