<svg width="51" height="51" viewBox="0 0 51 51" fill="none" xmlns="http://www.w3.org/2000/svg">
<g id="Frame 24">
<g id="Group">
<path id="Vector" d="M48.895 31.1674C51.9215 18.3503 43.9846 5.50644 31.1675 2.47994C18.3503 -0.546552 5.50645 7.39036 2.47996 20.2075C-0.54654 33.0247 7.39037 45.8685 20.2075 48.895C33.0247 51.9215 45.8685 43.9846 48.895 31.1674Z" stroke="#FD6B6B" stroke-width="2" stroke-miterlimit="10" stroke-linecap="round" stroke-linejoin="round"/>
<path id="Vector_2" d="M12.8404 21.6365C12.8404 20.4711 13.7824 19.5291 14.9477 19.5291C16.113 19.5291 17.055 20.4711 17.055 21.6365C17.055 22.8018 16.113 23.7438 14.9477 23.7438C13.7824 23.7438 12.8404 22.8018 12.8404 21.6365Z" fill="#FD6B6B"/>
<path id="Vector_3" d="M34.336 21.6365C34.336 20.4711 35.278 19.5291 36.4433 19.5291C37.6087 19.5291 38.5507 20.4711 38.5507 21.6365C38.5507 22.8018 37.6087 23.7438 36.4433 23.7438C35.278 23.7438 34.336 22.8018 34.336 21.6365Z" fill="#FD6B6B"/>
<path id="Vector_4" d="M14.1437 36.9441C16.0764 32.4817 20.5226 29.3593 25.6955 29.3593C30.8684 29.3593 35.3105 32.4777 37.2432 36.94" stroke="#FD6B6B" stroke-width="2" stroke-miterlimit="10" stroke-linecap="round" stroke-linejoin="round"/>
<path id="Vector_5" d="M13.1652 14.413L18.6792 17.7547" stroke="#FD6B6B" stroke-width="2" stroke-miterlimit="10" stroke-linecap="round" stroke-linejoin="round"/>
<path id="Vector_6" d="M38.2218 14.413L32.7078 17.7547" stroke="#FD6B6B" stroke-width="2" stroke-miterlimit="10" stroke-linecap="round" stroke-linejoin="round"/>
</g>
</g>
</svg>
