<svg width="49" height="48" viewBox="0 0 49 48" fill="none" xmlns="http://www.w3.org/2000/svg">
<path fill-rule="evenodd" clip-rule="evenodd" d="M19.15 11H19.0979C18.0221 11 17.1392 11 16.421 11.0586C15.6767 11.1195 15 11.2495 14.3666 11.5722C13.3787 12.0756 12.5756 12.8787 12.0722 13.8666C11.7495 14.5 11.6195 15.1767 11.5586 15.921C11.5 16.6392 11.5 17.5221 11.5 18.5979V18.65V20V28V29.35V29.4021C11.5 30.4779 11.5 31.3608 11.5586 32.079C11.6195 32.8233 11.7495 33.5 12.0722 34.1334C12.5756 35.1213 13.3787 35.9244 14.3666 36.4278C15 36.7505 15.6767 36.8805 16.421 36.9414C17.1391 37 18.0219 37 19.0977 37H19.0977H19.0977H19.0978H19.0978H19.0979H19.15H22C22.6904 37 23.25 36.4404 23.25 35.75C23.25 35.0596 22.6904 34.5 22 34.5H21.75V29.25H23C23.6904 29.25 24.25 28.6904 24.25 28C24.25 27.3096 23.6904 26.75 23 26.75H21.75V21.25H27.25V22.5C27.25 23.1904 27.8096 23.75 28.5 23.75C29.1904 23.75 29.75 23.1904 29.75 22.5V21.25H35V21.5C35 22.1904 35.5596 22.75 36.25 22.75C36.9404 22.75 37.5 22.1904 37.5 21.5V20V18.65V18.5979V18.5978V18.5978V18.5977V18.5977V18.5977C37.5 17.5219 37.5 16.6391 37.4414 15.921C37.3805 15.1767 37.2505 14.5 36.9278 13.8666C36.4244 12.8787 35.6213 12.0756 34.6334 11.5722C34 11.2495 33.3233 11.1195 32.579 11.0586C31.8608 11 30.9779 11 29.9021 11H29.85H28.5H19.15ZM14 29.35V29.25H19.25V34.5H19.15C18.0093 34.5 17.2289 34.499 16.6246 34.4497C16.0349 34.4015 15.7238 34.3135 15.5015 34.2003C14.9841 33.9366 14.5634 33.5159 14.2997 32.9985C14.1865 32.7762 14.0985 32.4651 14.0503 31.8754C14.001 31.2711 14 30.4907 14 29.35ZM14 26.75L19.25 26.75V21.25H14V26.75ZM27.25 13.5H21.75V18.75H27.25V13.5ZM29.75 18.75V13.5H29.85C30.9907 13.5 31.7711 13.501 32.3754 13.5503C32.9651 13.5985 33.2762 13.6865 33.4985 13.7997C34.0159 14.0634 34.4366 14.4841 34.7003 15.0015C34.8135 15.2238 34.9015 15.5349 34.9497 16.1246C34.999 16.7289 35 17.5093 35 18.65V18.75H29.75ZM14 18.75H19.25V13.5H19.15C18.0093 13.5 17.2289 13.501 16.6246 13.5503C16.0349 13.5985 15.7238 13.6865 15.5015 13.7997C14.9841 14.0634 14.5634 14.4841 14.2997 15.0015C14.1865 15.2238 14.0985 15.5349 14.0503 16.1246C14.001 16.7289 14 17.5093 14 18.65V18.75ZM33.5 41C37.9183 41 41.5 37.4183 41.5 33C41.5 28.5817 37.9183 25 33.5 25C29.0817 25 25.5 28.5817 25.5 33C25.5 37.4183 29.0817 41 33.5 41ZM31.0364 32.862C30.6849 32.5106 30.1151 32.5106 29.7636 32.862C29.4121 33.2135 29.4121 33.7834 29.7636 34.1348L31.7636 36.1348C32.1151 36.4863 32.6849 36.4863 33.0364 36.1348L37.2364 31.9348C37.5879 31.5834 37.5879 31.0135 37.2364 30.662C36.8849 30.3106 36.3151 30.3106 35.9636 30.662L32.4 34.2256L31.0364 32.862Z" fill="#FEFEFF"/>
</svg>
