<svg width="51" height="51" viewBox="0 0 51 51" fill="none" xmlns="http://www.w3.org/2000/svg">
<g id="Frame 21">
<g id="Group">
<path id="Vector" d="M25.5 49.5833C38.8008 49.5833 49.5833 38.8008 49.5833 25.5C49.5833 12.1991 38.8008 1.41666 25.5 1.41666C12.1991 1.41666 1.41666 12.1991 1.41666 25.5C1.41666 38.8008 12.1991 49.5833 25.5 49.5833Z" stroke="#86C3FC" stroke-width="2" stroke-miterlimit="10" stroke-linecap="round" stroke-linejoin="round"/>
<path id="Vector_2" d="M13.8336 35.354C15.7855 30.8473 20.2757 27.6939 25.5 27.6939C30.7243 27.6939 35.2104 30.8432 37.1624 35.3499" stroke="#86C3FC" stroke-width="2" stroke-miterlimit="10" stroke-linecap="round" stroke-linejoin="round"/>
<path id="Vector_3" d="M12.0374 19.7016C12.5541 20.5955 13.5219 21.1942 14.625 21.1942C15.6584 21.1942 16.5687 20.6693 17.1059 19.8779" stroke="#86C3FC" stroke-width="2" stroke-miterlimit="10" stroke-linecap="round" stroke-linejoin="round"/>
<path id="Vector_4" d="M38.9544 19.7016C38.4377 20.5955 37.4699 21.1942 36.3668 21.1942C35.3335 21.1942 34.4231 20.6693 33.8859 19.8779" stroke="#86C3FC" stroke-width="2" stroke-miterlimit="10" stroke-linecap="round" stroke-linejoin="round"/>
</g>
</g>
</svg>
