<svg width="51" height="51" viewBox="0 0 51 51" fill="none" xmlns="http://www.w3.org/2000/svg">
<g id="Frame 23">
<g id="Group">
<path id="Vector" d="M25.5 49.5429C38.7785 49.5429 49.5429 38.7785 49.5429 25.5C49.5429 12.2215 38.7785 1.45715 25.5 1.45715C12.2215 1.45715 1.45715 12.2215 1.45715 25.5C1.45715 38.7785 12.2215 49.5429 25.5 49.5429Z" stroke="#6FE47B" stroke-width="2" stroke-miterlimit="10" stroke-linecap="round" stroke-linejoin="round"/>
<path id="Vector_2" d="M12.3589 23.9239L16.9685 21.4267L12.3589 18.9294" stroke="#6FE47B" stroke-width="2" stroke-miterlimit="10" stroke-linecap="round" stroke-linejoin="round"/>
<path id="Vector_3" d="M38.637 23.9239L34.0315 21.4267L38.637 18.9294" stroke="#6FE47B" stroke-width="2" stroke-miterlimit="10" stroke-linecap="round" stroke-linejoin="round"/>
<path id="Vector_4" d="M40.0452 33.4583C39.6645 34.7069 38.5059 35.5543 37.1304 35.5543C35.7304 35.5543 34.5514 34.6087 34.1952 33.3232H34.1993C33.7776 32.1442 32.6518 31.3009 31.3295 31.3009C29.954 31.3009 28.7955 32.2097 28.4148 33.4583C28.034 34.7069 26.8755 35.5543 25.5 35.5543C24.0999 35.5543 22.9209 34.6087 22.5647 33.3232C22.1349 32.1606 21.0173 31.3009 19.7072 31.3009C18.3317 31.3009 17.1732 32.2097 16.7925 33.4583C16.4117 34.7069 15.2532 35.5543 13.8777 35.5543C12.4776 35.5543 11.2986 34.6087 10.9424 33.3232" stroke="#6FE47B" stroke-width="2" stroke-miterlimit="10" stroke-linecap="round" stroke-linejoin="round"/>
</g>
</g>
</svg>
